<svg id="icon" height="512" viewBox="0 0 128 128" width="512" xmlns="http://www.w3.org/2000/svg"><path d="m29.247 16.964a5.042 5.042 0 0 1 -.849.514 6.394 6.394 0 0 1 -7.1-1.045l-17.06-15.433-2.526 2.792 33.848 30.62 6.005-6.3z" fill="#707583"/><path d="m35.56 35.412a1 1 0 0 1 -.671-.258l-33.848-30.62a1 1 0 0 1 -.071-1.413l2.53-2.792a1 1 0 0 1 1.409-.071l17.06 15.433a5.42 5.42 0 0 0 5.985.89 4.265 4.265 0 0 0 .671-.4 1.008 1.008 0 0 1 1.292.042l12.319 11.143a1 1 0 0 1 .053 1.432l-6 6.3a1 1 0 0 1 -.729.314zm-32.435-31.691 32.383 29.295 4.625-4.855-10.992-9.944c-.092.051-.193.1-.3.157a7.436 7.436 0 0 1 -8.213-1.2l-16.319-14.761z" fill="#2f3a5a"/><path d="m60.983 62.326a32.275 32.275 0 0 1 -25.84 7.352 1.1 1.1 0 0 0 -1.225.867l-1.718 8.315a1.1 1.1 0 0 0 .844 1.3c3.958.855 18.442 3 33.9-6.9l2.756-3.052z" fill="#9297ab"/><path d="m41.2 81.964a40.371 40.371 0 0 1 -8.375-.826 2.108 2.108 0 0 1 -1.612-2.48l1.724-8.316a2.1 2.1 0 0 1 2.34-1.654 31.45 31.45 0 0 0 25-7.076l.672-.658 10.152 9.183-3.626 3.963a48.432 48.432 0 0 1 -26.275 7.864zm-6.2-11.296a.1.1 0 0 0 -.1.08l-1.723 8.315a.1.1 0 0 0 .076.12c3.953.854 17.994 2.887 33.033-6.694l2-2.21-7.3-6.608a33.428 33.428 0 0 1 -25.971 7z" fill="#2f3a5a"/><path d="m125.774 113.815-18.174-17.053a1.627 1.627 0 0 0 -.525-.33l-5.245-2.032-8.4-11.011-6.291 6.955 23.737 35.927a1.627 1.627 0 0 0 2.4.352l12.424-10.373a1.627 1.627 0 0 0 .074-2.435z" fill="#e1b378"/><g opacity=".5"><path d="m125.7 116.25-12.43 10.37a1.629 1.629 0 0 1 -2.4-.35l-23.73-35.93 2.34-2.58 22.04 33.36a1.626 1.626 0 0 0 2.4.35l10.59-8.84 1.26 1.18a1.626 1.626 0 0 1 -.07 2.44z" fill="#bd8d5a"/></g><path d="m112.229 128a2.563 2.563 0 0 1 -.381-.028 2.629 2.629 0 0 1 -1.81-1.151l-24.164-36.574 7.618-8.422 8.962 11.744 4.979 1.932a2.616 2.616 0 0 1 .847.533l18.179 17.052a2.627 2.627 0 0 1 -.114 3.933l-12.433 10.371a2.632 2.632 0 0 1 -1.683.61zm-23.829-37.562 23.309 35.28a.627.627 0 0 0 .925.136l12.432-10.372a.628.628 0 0 0 .027-.938l-18.182-17.052a.628.628 0 0 0 -.2-.128l-5.5-2.134-7.85-10.279z" fill="#2f3a5a"/><path d="m93.807 85.107-.415-8.292a1.318 1.318 0 0 0 -.432-.911l-27.7-25.062 1.567-1.732-9.927-8.974-4.273 4.724 5.984 5.413-5.84 6.457 15.494 14.016-3.432 3.794a.954.954 0 0 0 .068 1.348l1.449 1.312a.937.937 0 0 0 1.324-.066l2.174-2.4a.937.937 0 0 1 1.324-.066l5.775 5.224a.937.937 0 0 1 .066 1.324l-1.378 1.523a.937.937 0 0 0 .066 1.324l.274.248a.937.937 0 0 1 .21 1.112l-3.911 7.864a1.317 1.317 0 0 1 -.4.478l-1.526 1.113a1.317 1.317 0 0 0 -.456.6l-.351.926a1.318 1.318 0 0 0 .692 1.669l5.881 2.645a1.317 1.317 0 0 0 1.727-.63l5.256-10.92a1.317 1.317 0 0 1 2.071-.406l2.248 2.034a1.317 1.317 0 0 0 1.861-.093l4.194-4.637a1.317 1.317 0 0 0 .336-.959z" fill="#707583"/><path d="m76.659 101.829a2.336 2.336 0 0 1 -.959-.208l-5.881-2.645a2.322 2.322 0 0 1 -1.219-2.934l.351-.926a2.309 2.309 0 0 1 .8-1.05l1.527-1.113a.317.317 0 0 0 .1-.115l3.911-7.864-.26-.173a1.937 1.937 0 0 1 -.138-2.736l1.378-1.523-5.769-5.142-2.084 2.4a1.941 1.941 0 0 1 -2.736.137l-1.449-1.311a1.957 1.957 0 0 1 -.138-2.76l2.761-3.052-14.754-13.343a1 1 0 0 1 -.071-1.413l5.171-5.714-5.243-4.744a1 1 0 0 1 -.071-1.413l4.273-4.724a1 1 0 0 1 1.413-.071l9.921 8.975a1 1 0 0 1 .071 1.413l-.9.99 26.966 24.393a2.3 2.3 0 0 1 .76 1.6l.415 8.291a2.331 2.331 0 0 1 -.6 1.67l-4.194 4.637a2.32 2.32 0 0 1 -3.273.164l-2.249-2.034a.317.317 0 0 0 -.5.1l-5.256 10.92a2.3 2.3 0 0 1 -2.074 1.318zm-6.115-28.409a1.923 1.923 0 0 1 1.3.5l5.775 5.224a1.937 1.937 0 0 1 .137 2.736l-1.381 1.52.27.159a1.944 1.944 0 0 1 .436 2.3l-3.911 7.864a2.332 2.332 0 0 1 -.708.84l-1.528 1.114a.317.317 0 0 0 -.109.143l-.352.927a.319.319 0 0 0 .167.4l5.88 2.653a.315.315 0 0 0 .416-.152l5.256-10.92a2.317 2.317 0 0 1 3.643-.714l2.249 2.034a.317.317 0 0 0 .449-.022l4.194-4.637a.321.321 0 0 0 .082-.229l-.416-8.292a.321.321 0 0 0 -.1-.22l-27.7-25.062a1 1 0 0 1 -.071-1.413l.9-.99-8.437-7.633-2.945 3.239 5.242 4.742a1 1 0 0 1 .071 1.413l-5.169 5.715 14.752 13.341a1 1 0 0 1 .071 1.413l-3.432 3.797 1.446 1.247 2.085-2.4a1.924 1.924 0 0 1 1.339-.635z" fill="#2f3a5a"/><path d="m52.627 44.86 4.273-4.724-15.291-13.836a1.232 1.232 0 0 0 -1.741.087l-7.549 8.345a1.233 1.233 0 0 0 .087 1.741l14.152 12.8 6.212 7.452 5.841-6.456z" fill="#9297ab"/><g fill="#2f3a5a"><path d="m52.771 57.729h-.02a1 1 0 0 1 -.751-.359l-6.167-7.4-14.1-12.754a2.233 2.233 0 0 1 -.158-3.153l7.548-8.345a2.233 2.233 0 0 1 3.154-.157l15.295 13.833a1 1 0 0 1 .071 1.413l-3.6 3.982 5.242 4.742a1 1 0 0 1 .071 1.413l-5.843 6.456a1 1 0 0 1 -.742.329zm-11.988-30.745h-.012a.226.226 0 0 0 -.161.076l-7.549 8.345a.233.233 0 0 0 .017.328l14.152 12.8a1 1 0 0 1 .1.1l5.47 6.567 4.4-4.861-5.243-4.739a1 1 0 0 1 -.071-1.413l3.6-3.982-14.548-13.161a.228.228 0 0 0 -.155-.06z"/><path d="m70.757 87.8a3.438 3.438 0 0 1 -2.313-.886l-3.472-3.141a3.455 3.455 0 0 1 -.244-4.875l2.421-2.676a1 1 0 1 1 1.483 1.342l-2.421 2.676a1.45 1.45 0 0 0 .1 2.049l3.472 3.141a1.457 1.457 0 0 0 2.035-.086l3.479-3.73a1 1 0 1 1 1.463 1.364l-3.479 3.729a3.445 3.445 0 0 1 -2.524 1.093z"/><path d="m70.788 82.537a4.683 4.683 0 0 1 -1.981-.458 1 1 0 1 1 .84-1.815c2.667 1.236 4.561-2.292 4.64-2.444a1 1 0 0 1 1.773.925c-.779 1.498-2.716 3.792-5.272 3.792z"/></g></svg>