<svg enable-background="new 0 0 110 110" height="512" viewBox="0 0 110 110" width="512" xmlns="http://www.w3.org/2000/svg"><path d="m85.9727402 23.3995609h-61.9448509v63.201088.0002136c0 4.9858398 13.8668404 9.0275574 30.9723969 9.0275574 17.1056099 0 30.9724541-4.0417175 30.9724541-9.0275574 0-.0002136 0-.0002136 0-.0002136v-63.201088z" fill="#dbd8dd"/><path d="m85.9739914 37.3460388v34.182251c0 4.9860535-13.8699799 9.0296555-30.9697304 9.0296555-8.5498505 0-16.2943993-1.010849-21.9058266-2.6470718-5.6028023-1.6364288-9.0724258-3.8894501-9.0724258-6.3825836v-34.182251c0 2.4931297 3.4696236 4.746151 9.0724258 6.3825836 5.6114273 1.636219 13.3559761 2.647068 21.9058266 2.647068 17.0997505 0 30.9697304-4.0435982 30.9697304-9.0296517z" fill="#dd584d"/><path d="m55.0002861 14.371582c-17.1055565 0-30.9723969 4.0419254-30.9723969 9.0279789 0 4.9858456 13.8668404 9.0277691 30.9723969 9.0277691 17.1056099 0 30.9724541-4.0419235 30.9724541-9.0277691 0-4.9860534-13.8668442-9.0279789-30.9724541-9.0279789z" fill="#ededed"/><path d="m55.0000267 29.8570232c-18.449173 0-28.4024544-4.583849-28.4024544-6.45788s9.9532814-6.4570427 28.4024544-6.4570427 28.4024544 4.5830116 28.4024544 6.4570427-9.9532852 6.45788-28.4024544 6.45788z" fill="#dbd8dd"/><g fill="#ededed"><path d="m55.0000267 27.2869225c-13.0069504 0-21.1363983-2.308239-24.4954338-3.8877792 3.3590355-1.5787048 11.4884834-3.8869419 24.4954338-3.8869419s21.1363945 2.3082371 24.4954338 3.8869419c-3.3590393 1.5795402-11.4884872 3.8877792-24.4954338 3.8877792z"/><path d="m35.9812737 61.1499977c.4096565.0219612.8195992.0428734 1.2296486.0614891.0582504.5019722.1938362.925724.4067307 1.2716637.2129707.3448982.543541.6435738.9922066.894558.4485321.2518234.9536438.4070168 1.5148582.4699745.4986534.0552139.9389229.0259323 1.3207359-.0826187.3821297-.1114807.666317-.2863312.8529358-.5274887.1864624-.2401123.2801628-.516613.2799301-.8209343-.0001068-.3093414-.0899887-.5908661-.2698097-.8387146-.1800308-.2501488-.4766655-.4718513-.8900375-.6709709-.2651825-.1305122-.8516541-.3492889-1.7584724-.6720123-.906765-.3227272-1.5410805-.6084328-1.9044609-.8491707-.4707565-.3076706-.8214607-.6632347-1.0520782-1.0608368-.2306747-.3988609-.3460236-.8242798-.3460236-1.2800293-.000103-.5000916.1409721-.9476852.4233055-1.3421516.2822533-.3934212.6945-.6707611 1.2370758-.8259544.542469-.157074 1.1461449-.1963959 1.8105278-.120472.7318077.0830345 1.3778877.2683449 1.9373245.5594902.5594635.2903061.9899063.6780815 1.2915878 1.1639481.301445.4852409.4632797 1.0190048.4858398 1.6015015-.4184151-.0043907-.8366203-.0106659-1.2548256-.0186119-.0673485-.6324883-.295433-1.1269302-.6844101-1.4839592-.3887672-.35849-.962635-.5755959-1.7216339-.6617661-.7902946-.0895195-1.3652611-.0158958-1.7264748.2292328-.3611031.2459679-.5416565.5701561-.5414505.9803123-.0000763.3559799.1280289.6638565.3833313.9267654.251091.2612343.9070015.5808258 1.9687767.9409904 1.0619621.3589096 1.7911301.6387596 2.1869812.8579559.5754662.321682 1.0007286.6935577 1.2749863 1.1250458.274334.4298134.4118004.9108696.4116936 1.4419174-.0000496.5256081-.1508522 1.0100098-.4521904 1.4500732-.3016281.4404831-.7341614.7630005-1.298542.9683914-.5642509.2053909-1.1990356.2689743-1.9040184.1915817-.8936424-.0987167-1.6415825-.3216782-2.244812-.6586304-.6031799-.3379898-1.0757141-.7943687-1.4184647-1.3659897-.342598-.5718306-.5227853-1.1909331-.5407715-1.8545798z"/><path d="m45.2586174 60.5045433c-.0000267-1.642498.4411888-2.8953362 1.3240318-3.7683525.882843-.8751068 2.0231056-1.2737541 3.4207344-1.2237663.9153671.0351372 1.7406425.2735748 2.4759026.7236786.7351799.4500999 1.2957191 1.0650177 1.6814537 1.8468399.3856812.7826576.5785217 1.6682205.5785484 2.6585732-.0000801 1.0033188-.202961 1.9010124-.6090088 2.6907845-.4059715.7893486-.981041 1.3846092-1.7254257 1.7765617-.7443047.3915405-1.5468864.5735092-2.4082413.5429688-.9332504-.035141-1.7673111-.2995071-2.5016556-.7908173-.7343674-.4923477-1.2907219-1.1419868-1.6689796-1.9461899-.3784942-.8048287-.5672035-1.6427041-.5673599-2.5102807zm1.3510666.1112709c-.0001335 1.1936493.3210258 2.1515808.9630013 2.8744202.6420555.7205429 1.4476166 1.1049652 2.4171829 1.1409454.9875259.0363922 1.8004074-.2919846 2.4386711-.9711113.6382904-.681427.9574089-1.6615295.9574356-2.9346581 0-.8052483-.136631-1.5109367-.4093704-2.1149788-.2731285-.6034126-.6720428-1.0781937-1.1975441-1.420372-.5252419-.3430176-1.1152153-.5249825-1.7688789-.5500793-.9289093-.0349274-1.7278824.244503-2.3969193.8451958-.6690369.5990219-1.003685 1.6410332-1.0035782 3.1306381z"/><path d="m62.9646072 55.5452614c.4370041-.0259361.8739815-.0539627 1.3107224-.0838699v5.7172585c.0000839.9947433-.1123962 1.7920418-.3377304 2.3918991-.2252884.6000671-.6315727 1.1028748-1.2196655 1.5029907-.587883.400116-1.3599777.6264191-2.3155556.6630249-.9286232.0368118-1.6888504-.1016541-2.2795067-.4074402-.5909157-.3047333-1.0126762-.7627869-1.2652054-1.3634796-.2526093-.601532-.3789902-1.4272766-.3789368-2.4759789 0-1.9058266 0-3.8116493 0-5.7172623.4375267-.0054359.8750801-.0117111 1.3126068-.020916-.0000267 1.9037323-.0000267 3.8066254 0 5.7103577.0000763.8596306.0800247 1.4912796.2401619 1.8951569.1600533.4038811.4353027.7113342.8253784.9204941.3902054.2085266.8669205.3047409 1.430542.2821503.9648628-.0384827 1.6520424-.2911453 2.0621681-.7512856.4101028-.4578438.6149178-1.311615.6150208-2.552742 0-1.9031029 0-3.8068352 0-5.7103577z"/><path d="m66.4839096 65.1864853c0-3.2983818 0-6.5967598 0-9.8953476 1.2438965-.1062508 2.4868011-.2296524 3.7281418-.3706245.655777-.0736198 1.1555023-.1041565 1.5010529-.0840797.4845581.020916.8899536.1217308 1.2171555.3049507.3272476.1844749.5902634.4639053.7895813.8466606.1992264.3817062.2985687.81633.2988892 1.3078461.0002289.8414307-.2664413 1.5910454-.7994766 2.2475815-.5331039.6552849-1.4964218 1.076107-2.8927155 1.2363205-.8440247.0964203-1.6886444.1851006-2.5338974.265625-.0000229 1.3406868-.0000229 2.682209 0 4.0228958-.4360582.0414123-.8723603.0807342-1.3087312.1181716zm1.3087311-5.3087807c.8519745-.0811539 1.703392-.1702538 2.5541-.2677193.8439484-.0966301 1.4427567-.3292122 1.7968597-.6904221.3541718-.3593292.5313263-.8282547.5311966-1.3988304.0000839-.4134979-.1042328-.7540054-.3126297-1.0221405-.2085266-.2689743-.4831543-.4266777-.8240204-.4795952-.219696-.0332565-.6258698-.0102463-1.2183609.0568924-.8417435.0962105-1.684166.1844749-2.5271454.2647896-.0000228 1.1792184-.0000228 2.358017.0000001 3.5370255z"/></g></svg>