<?xml version="1.0" encoding="iso-8859-1"?>
<!-- Generator: Adobe Illustrator 19.0.0, SVG Export Plug-In . SVG Version: 6.00 Build 0)  -->
<svg version="1.1" id="Capa_1" xmlns="http://www.w3.org/2000/svg" xmlns:xlink="http://www.w3.org/1999/xlink" x="0px" y="0px"
	 viewBox="0 0 512 512" style="enable-background:new 0 0 512 512;" xml:space="preserve">
<g>
	<g transform="translate(1 1)">
		<path style="fill:#C52828;" d="M41.667,127h426.667c18.851,0,34.133,15.282,34.133,34.133V434.2
			c0,18.851-15.282,34.133-34.133,34.133H41.667c-18.851,0-34.133-15.282-34.133-34.133V161.133
			C7.533,142.282,22.815,127,41.667,127z"/>
		<path style="fill:#F44335;" d="M41.667,127h401.067c18.851,0,34.133,15.282,34.133,34.133V434.2
			c0,18.851-15.282,34.133-34.133,34.133H41.667c-18.851,0-34.133-15.282-34.133-34.133V161.133
			C7.533,142.282,22.815,127,41.667,127z"/>
		<path style="fill:#71C285;" d="M357.4,272.067v51.2c-0.014,4.707-3.826,8.519-8.533,8.533h-59.733
			c-4.707,0.014-8.519,3.826-8.533,8.533v59.733c-0.014,4.707-3.826,8.519-8.533,8.533h-51.2c-4.707-0.014-8.519-3.826-8.533-8.533
			v-59.733c-0.014-4.707-3.826-8.519-8.533-8.533h-59.733c-4.707-0.014-8.519-3.826-8.533-8.533v-51.2
			c0.014-4.707,3.826-8.519,8.533-8.533H203.8c4.707-0.014,8.519-3.826,8.533-8.533v-59.733c0.014-4.707,3.826-8.519,8.533-8.533
			h51.2c4.707,0.014,8.519,3.826,8.533,8.533V255c0.014,4.707,3.826,8.519,8.533,8.533h59.733
			C353.574,263.547,357.386,267.36,357.4,272.067z"/>
		<path id="SVGCleanerId_0" style="fill:#37474F;" d="M127,109.933V127H58.733v-17.067c0.028-9.414,7.652-17.039,17.067-17.067
			h34.133C119.348,92.894,126.973,100.519,127,109.933z"/>
		<path id="SVGCleanerId_1" style="fill:#37474F;" d="M451.267,109.933V127H383v-17.067c0.027-9.414,7.652-17.039,17.067-17.067
			H434.2C443.614,92.894,451.239,100.519,451.267,109.933z"/>
		<path style="fill:#71C285;" d="M340.333,84.333V127H306.2V84.333c-0.014-4.707-3.826-8.519-8.533-8.533H203.8
			c-4.707,0.014-8.519,3.826-8.533,8.533V127h-34.133V84.333c0.009-23.561,19.106-42.658,42.667-42.667h93.867
			C321.227,41.675,340.325,60.773,340.333,84.333z"/>
		<path style="fill:#FFFFFF;" d="M357.4,272.067v51.2c-0.014,4.707-3.826,8.519-8.533,8.533h-59.733
			c-4.707,0.014-8.519,3.826-8.533,8.533v59.733c-0.014,4.707-3.826,8.519-8.533,8.533h-51.2c-4.707-0.014-8.519-3.826-8.533-8.533
			v-59.733c-0.014-4.707-3.826-8.519-8.533-8.533h-59.733c-4.707-0.014-8.519-3.826-8.533-8.533v-51.2
			c0.014-4.707,3.826-8.519,8.533-8.533H203.8c4.707-0.014,8.519-3.826,8.533-8.533v-59.733c0.014-4.707,3.826-8.519,8.533-8.533
			h51.2c4.707,0.014,8.519,3.826,8.533,8.533V255c0.014,4.707,3.826,8.519,8.533,8.533h59.733
			C353.574,263.547,357.386,267.36,357.4,272.067z"/>
		<g>
			<path id="SVGCleanerId_0_1_" style="fill:#37474F;" d="M127,109.933V127H58.733v-17.067c0.028-9.414,7.652-17.039,17.067-17.067
				h34.133C119.348,92.894,126.973,100.519,127,109.933z"/>
		</g>
		<g>
			<path id="SVGCleanerId_1_1_" style="fill:#37474F;" d="M451.267,109.933V127H383v-17.067c0.027-9.414,7.652-17.039,17.067-17.067
				H434.2C443.614,92.894,451.239,100.519,451.267,109.933z"/>
		</g>
		<path id="SVGCleanerId_2" style="fill:#607D8B;" d="M101.4,109.933V127H58.733v-17.067c0.028-9.414,7.652-17.039,17.067-17.067
			h8.533C93.748,92.894,101.372,100.519,101.4,109.933z"/>
		<path id="SVGCleanerId_3" style="fill:#607D8B;" d="M425.667,109.933V127H383v-17.067c0.027-9.414,7.652-17.039,17.067-17.067
			h8.533C418.014,92.894,425.639,100.519,425.667,109.933z"/>
		<g>
			<path id="SVGCleanerId_2_1_" style="fill:#607D8B;" d="M101.4,109.933V127H58.733v-17.067
				c0.028-9.414,7.652-17.039,17.067-17.067h8.533C93.748,92.894,101.372,100.519,101.4,109.933z"/>
		</g>
		<g>
			<path id="SVGCleanerId_3_1_" style="fill:#607D8B;" d="M425.667,109.933V127H383v-17.067c0.027-9.414,7.652-17.039,17.067-17.067
				h8.533C418.014,92.894,425.639,100.519,425.667,109.933z"/>
		</g>
		<path style="fill:#607D8B;" d="M340.333,84.333V127H306.2V84.333c-0.014-4.707-3.826-8.519-8.533-8.533H203.8
			c-4.707,0.014-8.519,3.826-8.533,8.533V127h-34.133V84.333c0.009-23.561,19.106-42.658,42.667-42.667h93.867
			C321.227,41.675,340.325,60.773,340.333,84.333z"/>
	</g>
	<g>
		<path d="M469.333,119.467H460.8v-8.533c-0.015-14.132-11.468-25.585-25.6-25.6h-34.133c-14.132,0.015-25.585,11.468-25.6,25.6
			v8.533h-25.6V85.333c-0.031-28.264-22.936-51.169-51.2-51.2H204.8c-28.264,0.031-51.169,22.936-51.2,51.2v34.133h-17.067v-8.533
			c-0.015-14.132-11.468-25.585-25.6-25.6H76.8c-14.132,0.015-25.585,11.468-25.6,25.6v8.533h-8.533
			C19.114,119.494,0.028,138.581,0,162.133V435.2c0.028,23.553,19.114,42.639,42.667,42.667h426.667
			c23.553-0.028,42.639-19.114,42.667-42.667V162.133C511.972,138.581,492.886,119.494,469.333,119.467z M392.533,110.933
			c0.003-4.712,3.822-8.53,8.533-8.533H435.2c4.712,0.003,8.53,3.822,8.533,8.533v8.533h-51.2V110.933z M170.667,85.333
			c0.019-18.844,15.29-34.115,34.133-34.133h93.867c18.844,0.019,34.115,15.29,34.133,34.133v34.133h-17.067V85.333
			c-0.012-9.421-7.646-17.054-17.067-17.067H204.8c-9.421,0.012-17.054,7.646-17.067,17.067v34.133h-17.067V85.333z
			 M298.667,119.467H204.8V85.333h93.867V119.467z M68.267,110.933c0.003-4.712,3.822-8.53,8.533-8.533h34.133
			c4.712,0.003,8.53,3.822,8.533,8.533v8.533h-51.2V110.933z M494.933,435.2c-0.015,14.132-11.468,25.585-25.6,25.6H42.667
			c-14.132-0.015-25.585-11.468-25.6-25.6V162.133c0.015-14.132,11.468-25.585,25.6-25.6h426.667
			c14.132,0.015,25.585,11.468,25.6,25.6V435.2z"/>
		<path d="M349.867,256h-59.733v-59.733c-0.012-9.421-7.646-17.054-17.067-17.067h-51.2c-9.421,0.012-17.054,7.646-17.067,17.067
			V256h-59.733c-9.421,0.012-17.054,7.646-17.067,17.067v51.2c0.012,9.421,7.646,17.054,17.067,17.067H204.8v59.733
			c0.012,9.421,7.646,17.054,17.067,17.067h51.2c9.421-0.012,17.054-7.646,17.067-17.067v-59.733h59.733
			c9.421-0.012,17.054-7.646,17.067-17.067v-51.2C366.921,263.646,359.287,256.012,349.867,256z M349.867,324.267h-59.733
			c-9.421,0.012-17.054,7.646-17.067,17.067v59.733h-51.2v-59.733c-0.012-9.421-7.646-17.054-17.067-17.067h-59.733v-51.2H204.8
			c9.421-0.012,17.054-7.646,17.067-17.067v-59.733h51.2V256c0.012,9.421,7.646,17.054,17.067,17.067l59.733-0.017V324.267z"/>
	</g>
</g>
<g>
</g>
<g>
</g>
<g>
</g>
<g>
</g>
<g>
</g>
<g>
</g>
<g>
</g>
<g>
</g>
<g>
</g>
<g>
</g>
<g>
</g>
<g>
</g>
<g>
</g>
<g>
</g>
<g>
</g>
</svg>
